<?xml version="1.0" encoding="utf-8"?>
<!-- Generator: Adobe Illustrator 27.5.0, SVG Export Plug-In . SVG Version: 6.00 Build 0)  -->
<svg version="1.1" xmlns="http://www.w3.org/2000/svg" xmlns:xlink="http://www.w3.org/1999/xlink" x="0px" y="0px"
	 viewBox="0 0 500 500" style="enable-background:new 0 0 500 500;" xml:space="preserve">
<g id="Background_Simple">
	<g>
		<path style="fill:#0d6efd;" d="M81.91,305.635c0,0,24.948,57.027,88.215,75.646c63.267,18.619,130.704-6.203,185.868-24.872
			c55.164-18.668,84.167-66.457,71.873-115.357c-12.293-48.9-58.761-45.434-102.094-88.899
			c-43.333-43.464-48.279-61.618-108.345-74.457S91.625,115.408,75.189,187.023C58.752,258.638,81.91,305.635,81.91,305.635z"/>
		<path style="opacity:0.8;fill:#FFFFFF;" d="M81.91,305.635c0,0,24.948,57.027,88.215,75.646
			c63.267,18.619,130.704-6.203,185.868-24.872c55.164-18.668,84.167-66.457,71.873-115.357
			c-12.293-48.9-58.761-45.434-102.094-88.899c-43.333-43.464-48.279-61.618-108.345-74.457S91.625,115.408,75.189,187.023
			C58.752,258.638,81.91,305.635,81.91,305.635z"/>
	</g>
</g>
<g id="Trees">
	<g>
		<g>
			<path style="fill:#0d6efd;" d="M402.986,228.602c0,0,22.921,2.268,34.538,16.476c0,0,12.274-16.46,34.318-16.123
				c6.397-7.71,10.245-17.612,10.249-28.413c0.008-24.605-19.931-44.559-44.536-44.567c-24.605-0.009-44.559,19.931-44.567,44.536
				c-0.004,10.666,3.743,20.457,9.992,28.129L402.986,228.602z"/>
			<path style="opacity:0.5;fill:#FFFFFF;" d="M402.986,228.602c0,0,22.921,2.268,34.538,16.476c0,0,12.274-16.46,34.318-16.123
				c6.397-7.71,10.245-17.612,10.249-28.413c0.008-24.605-19.931-44.559-44.536-44.567c-24.605-0.009-44.559,19.931-44.567,44.536
				c-0.004,10.666,3.743,20.457,9.992,28.129L402.986,228.602z"/>
			<g>
				<polygon style="fill:#B8B8B8;" points="436.765,159.117 435.991,307.664 439.86,307.664 				"/>
				<path style="fill:#B8B8B8;" d="M437.926,240.747c0,0,7.738-13.927,21.665-18.183c0,0-14.701,3.482-22.052,15.475
					L437.926,240.747z"/>
				<path style="fill:#B8B8B8;" d="M437.926,201.286c0,0,7.738-13.928,21.665-18.183c0,0-14.701,3.482-22.052,15.475
					L437.926,201.286z"/>
				<path style="fill:#B8B8B8;" d="M437.926,221.017c0,0,7.738-13.928,21.665-18.183c0,0-14.701,3.482-22.052,15.475
					L437.926,221.017z"/>
				<path style="fill:#B8B8B8;" d="M436.779,211.345c0,0-7.466-13.928-20.905-18.183c0,0,14.185,3.482,21.278,15.475
					L436.779,211.345z"/>
				<path style="fill:#B8B8B8;" d="M436.779,230.689c0,0-7.466-13.928-20.905-18.183c0,0,14.185,3.482,21.278,15.475
					L436.779,230.689z"/>
			</g>
		</g>
		<g>
			<path style="fill:#0d6efd;" d="M27.866,228.602c0,0,22.921,2.268,34.538,16.476c0,0,12.274-16.46,34.318-16.123
				c6.397-7.71,10.245-17.612,10.249-28.413c0.008-24.605-19.931-44.559-44.536-44.567c-24.605-0.009-44.558,19.931-44.567,44.536
				c-0.004,10.666,3.743,20.457,9.991,28.129L27.866,228.602z"/>
			<path style="opacity:0.5;fill:#FFFFFF;" d="M27.866,228.602c0,0,22.921,2.268,34.538,16.476c0,0,12.274-16.46,34.318-16.123
				c6.397-7.71,10.245-17.612,10.249-28.413c0.008-24.605-19.931-44.559-44.536-44.567c-24.605-0.009-44.558,19.931-44.567,44.536
				c-0.004,10.666,3.743,20.457,9.991,28.129L27.866,228.602z"/>
			<g>
				<polygon style="fill:#B8B8B8;" points="61.645,159.117 60.871,307.664 64.74,307.664 				"/>
				<path style="fill:#B8B8B8;" d="M62.806,240.747c0,0,7.737-13.927,21.665-18.183c0,0-14.701,3.482-22.052,15.475L62.806,240.747z
					"/>
				<path style="fill:#B8B8B8;" d="M62.806,201.286c0,0,7.737-13.928,21.665-18.183c0,0-14.701,3.482-22.052,15.475L62.806,201.286z
					"/>
				<path style="fill:#B8B8B8;" d="M62.806,221.017c0,0,7.737-13.928,21.665-18.183c0,0-14.701,3.482-22.052,15.475L62.806,221.017z
					"/>
				<path style="fill:#B8B8B8;" d="M61.659,211.345c0,0-7.466-13.928-20.905-18.183c0,0,14.186,3.482,21.278,15.475L61.659,211.345z
					"/>
				<path style="fill:#B8B8B8;" d="M61.659,230.689c0,0-7.466-13.928-20.905-18.183c0,0,14.186,3.482,21.278,15.475L61.659,230.689z
					"/>
			</g>
		</g>
		<g>
			<path style="fill:#0d6efd;" d="M309.865,242.955c0,0,18.76,1.856,28.268,13.485c0,0,10.045-13.472,28.088-13.196
				c5.236-6.311,8.385-14.415,8.388-23.255c0.007-20.138-16.313-36.469-36.451-36.476c-20.138-0.007-36.469,16.313-36.476,36.451
				c-0.003,8.73,3.063,16.743,8.178,23.022L309.865,242.955z"/>
			<path style="opacity:0.5;fill:#FFFFFF;" d="M309.865,242.955c0,0,18.76,1.856,28.268,13.485c0,0,10.045-13.472,28.088-13.196
				c5.236-6.311,8.385-14.415,8.388-23.255c0.007-20.138-16.313-36.469-36.451-36.476c-20.138-0.007-36.469,16.313-36.476,36.451
				c-0.003,8.73,3.063,16.743,8.178,23.022L309.865,242.955z"/>
			<g>
				<polygon style="fill:#B8B8B8;" points="337.513,186.085 336.879,307.664 340.046,307.664 				"/>
				<path style="fill:#B8B8B8;" d="M338.463,252.896c0,0,6.333-11.399,17.732-14.882c0,0-12.032,2.85-18.048,12.666L338.463,252.896
					z"/>
				<path style="fill:#B8B8B8;" d="M338.463,220.598c0,0,6.333-11.399,17.732-14.882c0,0-12.032,2.85-18.048,12.666L338.463,220.598
					z"/>
				<path style="fill:#B8B8B8;" d="M338.463,236.747c0,0,6.333-11.399,17.732-14.882c0,0-12.032,2.85-18.048,12.666L338.463,236.747
					z"/>
				<path style="fill:#B8B8B8;" d="M337.524,228.831c0,0-6.111-11.399-17.11-14.882c0,0,11.61,2.85,17.415,12.666L337.524,228.831z"
					/>
				<path style="fill:#B8B8B8;" d="M337.524,244.663c0,0-6.111-11.399-17.11-14.882c0,0,11.61,2.85,17.415,12.666L337.524,244.663z"
					/>
			</g>
		</g>
		<g>
			<path style="fill:#0d6efd;" d="M128.356,242.955c0,0,18.76,1.856,28.268,13.485c0,0,10.045-13.472,28.088-13.196
				c5.236-6.311,8.385-14.415,8.388-23.255c0.007-20.138-16.313-36.469-36.451-36.476c-20.138-0.007-36.469,16.313-36.476,36.451
				c-0.003,8.73,3.064,16.743,8.178,23.022L128.356,242.955z"/>
			<path style="opacity:0.5;fill:#FFFFFF;" d="M128.356,242.955c0,0,18.76,1.856,28.268,13.485c0,0,10.045-13.472,28.088-13.196
				c5.236-6.311,8.385-14.415,8.388-23.255c0.007-20.138-16.313-36.469-36.451-36.476c-20.138-0.007-36.469,16.313-36.476,36.451
				c-0.003,8.73,3.064,16.743,8.178,23.022L128.356,242.955z"/>
			<g>
				<polygon style="fill:#B8B8B8;" points="156.003,186.085 155.37,307.664 158.536,307.664 				"/>
				<path style="fill:#B8B8B8;" d="M156.953,252.896c0,0,6.333-11.399,17.732-14.882c0,0-12.033,2.85-18.048,12.666L156.953,252.896
					z"/>
				<path style="fill:#B8B8B8;" d="M156.953,220.598c0,0,6.333-11.399,17.732-14.882c0,0-12.033,2.85-18.048,12.666L156.953,220.598
					z"/>
				<path style="fill:#B8B8B8;" d="M156.953,236.747c0,0,6.333-11.399,17.732-14.882c0,0-12.033,2.85-18.048,12.666L156.953,236.747
					z"/>
				<path style="fill:#B8B8B8;" d="M156.014,228.831c0,0-6.111-11.399-17.11-14.882c0,0,11.61,2.85,17.415,12.666L156.014,228.831z"
					/>
				<path style="fill:#B8B8B8;" d="M156.014,244.663c0,0-6.111-11.399-17.11-14.882c0,0,11.61,2.85,17.415,12.666L156.014,244.663z"
					/>
			</g>
		</g>
		
			<line style="fill:none;stroke:#263238;stroke-width:1.0474;stroke-miterlimit:10;" x1="34.769" y1="308.192" x2="466.307" y2="308.192"/>
	</g>
</g>
<g id="Characters">
	<g>
		<path style="opacity:0.3;" d="M152.594,356.451c0,2.976-18.437,5.388-41.179,5.388c-22.743,0-41.179-2.412-41.179-5.388
			c0-2.976,18.437-5.388,41.179-5.388C134.157,351.064,152.594,353.476,152.594,356.451z"/>
		<path style="opacity:0.3;" d="M238.801,356.451c0,2.976-18.437,5.388-41.179,5.388c-22.743,0-41.179-2.412-41.179-5.388
			c0-2.976,18.437-5.388,41.179-5.388C220.364,351.064,238.801,353.476,238.801,356.451z"/>
		<path style="opacity:0.3;" d="M352.955,356.451c0,2.976-18.437,5.388-41.18,5.388c-22.743,0-41.179-2.412-41.179-5.388
			c0-2.976,18.437-5.388,41.179-5.388C334.518,351.064,352.955,353.476,352.955,356.451z"/>
		<path style="opacity:0.3;" d="M448.399,356.451c0,2.976-18.437,5.388-41.18,5.388s-41.179-2.412-41.179-5.388
			c0-2.976,18.437-5.388,41.179-5.388S448.399,353.476,448.399,356.451z"/>
		<g>
			<g>
				
					<path style="fill:#FFFFFF;stroke:#263238;stroke-width:1.0474;stroke-linecap:round;stroke-linejoin:round;stroke-miterlimit:10;" d="
					M316.276,198.773c0,0-1.684,6.975-1.684,8.178c0,1.203-0.241,2.165-0.241,2.165s-3.608,4.329-3.127,5.532
					c0.481,1.203,2.405,2.165,2.405,2.165s1.924,6.975,3.848,7.456s6.013,0.722,6.013,0.722l0.721,5.773l9.621-1.443l-2.405-8.659
					l0.962-7.456c0,0,1.684-3.127,0-8.178c-1.684-5.051-5.292-5.291-7.697-5.291C322.289,199.735,316.276,198.773,316.276,198.773z"
					/>
				
					<path style="fill:#263238;stroke:#263238;stroke-width:1.0474;stroke-linecap:round;stroke-linejoin:round;stroke-miterlimit:10;" d="
					M320.605,195.165c0,0-8.418-0.24-8.178,1.924c0.24,2.165,8.9,5.051,8.9,5.051s-2.886,1.924-1.443,3.848s4.811,3.608,4.811,3.608
					s-0.962,4.089,0.481,4.329c1.443,0.241,2.405-1.924,2.646-2.646c0.241-0.722,2.886-0.481,3.608,1.443
					c0.722,1.924,0.722,3.127,0.722,3.127s2.886-8.659,3.367-12.507C335.999,199.495,325.175,195.165,320.605,195.165z"/>
				
					<path style="fill:#FFFFFF;stroke:#263238;stroke-width:1.0474;stroke-linecap:round;stroke-linejoin:round;stroke-miterlimit:10;" d="
					M325.944,214.009c0,0,2.901-6.395,4.647-3.253c1.746,3.142,1.035,6.43-0.711,6.779c-1.746,0.349-3.142,0.698-3.142,0.698"/>
				
					<path style="fill:#263238;stroke:#263238;stroke-width:1.0474;stroke-linecap:round;stroke-linejoin:round;stroke-miterlimit:10;" d="
					M314.111,280.793c-0.475,0.543-8.178,17.077-9.14,22.61c-0.962,5.532-7.216,38.484-7.456,39.927
					c-0.241,1.443-13.47,4.329-14.432,4.57c-0.962,0.24,0.962,2.886,3.849,3.608c2.886,0.722,11.064,4.089,12.988,2.165
					c1.924-1.924,4.57-12.748,5.292-13.951c0.721-1.203,14.26-33.099,14.26-33.099s6.936-15.316,8.379-16.759
					c1.443-1.443-1.713-7.868-2.916-9.792C323.732,278.147,317.478,276.944,314.111,280.793z"/>
				
					<path style="fill:#263238;stroke:#263238;stroke-width:1.0474;stroke-linecap:round;stroke-linejoin:round;stroke-miterlimit:10;" d="
					M312.668,281.033c0,0,3.368,16.115,5.051,21.888c1.684,5.773,5.051,10.824,6.975,13.47c1.924,2.646,11.305,25.977,11.305,25.977
					l1.443,3.608c0,0-0.481,1.443-3.127,3.367c-2.646,1.924-10.102,5.051-8.178,5.773c1.924,0.722,9.621,0.722,13.229,0.481
					c3.608-0.241,6.735-2.165,8.178-3.848c1.443-1.684-2.405-6.494-2.405-7.456s-8.418-30.306-8.899-31.749
					c-0.481-1.443-2.886-11.786-2.886-11.786V288.97c0,0,1.203-2.165,1.203-6.975c0-4.811-3.608-5.773-3.608-5.773l-19.723,1.924
					L312.668,281.033z"/>
				
					<path style="fill:#0d6efd;stroke:#263238;stroke-width:1.0474;stroke-linecap:round;stroke-linejoin:round;stroke-miterlimit:10;" d="
					M310.984,279.59c0,0,0.481,4.089,1.924,4.329c1.443,0.241,16.356,4.329,22.85-0.481c0,0,1.203-3.608,0.481-4.57
					c-0.722-0.962-2.405-0.481-11.064-0.481C316.516,278.387,310.984,278.387,310.984,279.59z"/>
				
					<path style="fill:#0d6efd;stroke:#263238;stroke-width:1.0474;stroke-linecap:round;stroke-linejoin:round;stroke-miterlimit:10;" d="
					M333.113,225.712c0,0-8.9,1.203-12.748,5.051c-3.848,3.848-7.216,10.824-8.899,17.318c-1.684,6.494-2.886,30.306-0.481,31.509
					c2.405,1.203,22.609,2.405,25.977,0.962c3.367-1.443-0.241-12.748-0.241-17.077c0-4.329,3.848-19.002,3.127-27.179
					C339.126,228.117,333.113,225.712,333.113,225.712z"/>
				<g>
					
						<path style="fill:#263238;stroke:#263238;stroke-width:1.0474;stroke-linecap:round;stroke-linejoin:round;stroke-miterlimit:10;" d="
						M300.947,250.709c-0.105-9.897-4.146-18.35-9.512-22.02l-0.021-2.022l-14.8,0.156c-8.333,0.088-14.973,10.967-14.833,24.299
						c0.141,13.332,7.01,24.069,15.343,23.981l14.8-0.156l-0.021-2.022C297.189,269.142,301.051,260.605,300.947,250.709z"/>
					
						<path style="fill:#FFFFFF;stroke:#263238;stroke-width:1.0474;stroke-linecap:round;stroke-linejoin:round;stroke-miterlimit:10;" d="
						M307.64,250.638c-0.11-10.398-4.119-19.283-9.757-23.139l-0.022-2.125l-6.341,0.067c-8.755,0.092-15.733,11.523-15.585,25.531
						c0.148,14.008,7.365,25.289,16.12,25.197l6.341-0.067l-0.022-2.125C303.93,270.003,307.75,261.036,307.64,250.638z"/>
					
						<path style="fill:#737373;stroke:#263238;stroke-width:1.0474;stroke-linecap:round;stroke-linejoin:round;stroke-miterlimit:10;" d="
						M313.981,250.571c0.148,14.008-6.83,25.439-15.585,25.531c-8.755,0.092-15.972-11.188-16.12-25.196
						c-0.148-14.008,6.829-25.439,15.585-25.531C306.616,225.282,313.833,236.563,313.981,250.571z"/>
					
						<path style="fill:#263238;stroke:#263238;stroke-width:1.0474;stroke-linecap:round;stroke-linejoin:round;stroke-miterlimit:10;" d="
						M310.356,250.135c0.07,6.639-3.237,12.057-7.387,12.101c-4.15,0.044-7.57-5.303-7.64-11.942
						c-0.07-6.639,3.237-12.057,7.386-12.101C306.865,238.149,310.286,243.496,310.356,250.135z"/>
					<g>
						
							<path style="fill:#263238;stroke:#263238;stroke-width:1.0474;stroke-linecap:round;stroke-linejoin:round;stroke-miterlimit:10;" d="
							M428.201,299.965c1.309-8.118,1.048-18.592,1.048-18.592c-3.247,1.499-22.209,2.044-23.949,2.091
							c-1.74-0.047-20.702-0.592-23.949-2.091c0,0-0.262,10.474,1.047,18.592c1.309,8.117,12.831,40.587,13.093,42.159
							c0.262,1.571,1.309,4.452,1.309,4.452s-6.546,4.713-9.427,6.546c-2.88,1.833-0.786,2.619,2.095,2.619
							s8.903-0.786,10.736-0.786c1.612,0,4.438-1.417,5.096-1.758c0.658,0.341,3.483,1.758,5.095,1.758
							c1.833,0,7.856,0.786,10.736,0.786s4.975-0.786,2.095-2.619c-2.88-1.833-9.427-6.546-9.427-6.546s1.047-2.88,1.309-4.452
							C415.37,340.552,426.891,308.082,428.201,299.965z"/>
						<g>
							
								<path style="fill:#0d6efd;stroke:#263238;stroke-width:1.0474;stroke-linecap:round;stroke-linejoin:round;stroke-miterlimit:10;" d="
								M401.338,230.486c0,0-10.125,3.317-15.362,6.634c-5.237,3.317-10.474,21.298-10.474,21.996s-1.222,3.666-1.222,3.666
								s-5.237-1.222-6.284,3.142c-1.047,4.364,5.237,9.951,8.554,10.125c3.317,0.175,4.364-0.873,4.364-0.873
								s-2.095,4.19-1.222,5.935c0.873,1.746,8.205,8.205,22.694,8.03c14.489-0.175,24.964-2.618,26.535-4.713
								c1.571-2.095,1.746-6.459,1.746-6.459s5.412-1.396,7.332-4.888c1.92-3.491,1.571-7.157,0.524-10.823
								c-1.047-3.666-6.459-14.315-10.125-20.25c-3.666-5.935-11.347-9.252-15.013-10.3
								C409.718,230.661,403.782,230.486,401.338,230.486z"/>
							
								<path style="fill:#FFFFFF;stroke:#263238;stroke-width:1.0474;stroke-linecap:round;stroke-linejoin:round;stroke-miterlimit:10;" d="
								M404.408,245.192c1.454-0.485,5.978-4.524,7.755-8.563c0.857-1.948,1.261-3.629,1.452-4.851
								c-0.075-0.022-0.159-0.05-0.231-0.07c-3.666-1.047-9.601-1.222-12.045-1.222c0,0-2.12,0.696-4.913,1.764
								c0.013,1.503,0.221,3.878,1.197,6.319C399.238,242.607,402.953,245.677,404.408,245.192z"/>
							
								<path style="fill:none;stroke:#263238;stroke-width:1.0474;stroke-linecap:round;stroke-linejoin:round;stroke-miterlimit:10;" d="
								M421.065,253.355c0,0,4.19,22.345,8.903,24.614"/>
							
								<path style="fill:none;stroke:#263238;stroke-width:1.0474;stroke-linecap:round;stroke-linejoin:round;stroke-miterlimit:10;" d="
								M380.914,275.176c0,0,5.237-19.726,5.586-21.647"/>
							
								<path style="fill:none;stroke:#263238;stroke-width:1.0474;stroke-linecap:round;stroke-linejoin:round;stroke-miterlimit:10;" d="
								M427.834,263.449c0,0-2.908,0.646-2.908,2.747"/>
							
								<path style="fill:none;stroke:#263238;stroke-width:1.0474;stroke-linecap:round;stroke-linejoin:round;stroke-miterlimit:10;" d="
								M378.558,263.772c0,0,3.231,2.1,2.908,5.331"/>
						</g>
						
							<path style="fill:#0d6efd;stroke:#263238;stroke-width:1.0474;stroke-linecap:round;stroke-linejoin:round;stroke-miterlimit:10;" d="
							M400.204,354.954c1.612,0,4.438-1.417,5.096-1.758c0.658,0.341,3.483,1.758,5.095,1.758c1.833,0,7.856,0.786,10.736,0.786
							s4.975-0.786,2.095-2.619c-2.502-1.592-7.766-5.355-9.106-6.316c-3.091,2.826-9.202,2.126-9.202,2.126
							s-1.833-0.262-3.666-0.786s-4.452-1.571-4.452-1.571s-6.546,4.713-9.427,6.546c-2.88,1.833-0.786,2.619,2.095,2.619
							S398.371,354.954,400.204,354.954z"/>
						<g>
							
								<line style="fill:none;stroke:#FFFFFF;stroke-width:1.0474;stroke-linecap:round;stroke-linejoin:round;stroke-miterlimit:10;" x1="404.917" y1="346.674" x2="404.917" y2="301.012"/>
							
								<polyline style="fill:none;stroke:#263238;stroke-width:1.0474;stroke-linecap:round;stroke-linejoin:round;stroke-miterlimit:10;" points="
								405.299,353.196 404.917,348.932 404.917,346.674 							"/>
							
								<line style="fill:none;stroke:#FFFFFF;stroke-width:1.0474;stroke-linecap:round;stroke-linejoin:round;stroke-miterlimit:10;" x1="401.251" y1="299.441" x2="408.845" y2="299.441"/>
						</g>
						
							<path style="fill:#263238;stroke:#263238;stroke-width:1.0474;stroke-linecap:round;stroke-linejoin:round;stroke-miterlimit:10;" d="
							M391.333,204.286c0,0-5.446,3.268-4.629,6.127c0.817,2.859,3.268,3.404,2.723,5.037c-0.545,1.634-2.451,2.587-0.272,3.54
							c2.178,0.953,3.812,1.225,3.812,1.225s2.042,6.943,5.446,8.169c3.404,1.225,9.394,0.408,13.615-0.136
							c4.221-0.545,5.718-3.676,6.127-5.174c0.408-1.498-1.77,0.272-2.859-1.361c-1.089-1.634,0.545-5.854,1.77-9.53
							c1.225-3.676-2.451-10.62-7.216-12.934C405.084,196.934,395.962,198.159,391.333,204.286z"/>
						
							<path style="fill:#FFFFFF;stroke:#263238;stroke-width:1.0474;stroke-linecap:round;stroke-linejoin:round;stroke-miterlimit:10;" d="
							M400.465,228.042c0,0-1.222,4.015-1.397,6.983c-0.175,2.968,2.269,6.285,4.888,6.11c2.619-0.175,4.888-5.412,5.237-8.03
							c0.349-2.618-0.873-9.601-0.873-9.601s-4.015,0.175-5.586,1.571C401.164,226.471,400.465,228.042,400.465,228.042z"/>
						
							<path style="fill:#FFFFFF;stroke:#263238;stroke-width:1.0474;stroke-linecap:round;stroke-linejoin:round;stroke-miterlimit:10;" d="
							M396.915,208.098c0,0,0.136,4.084,4.221,8.033c4.084,3.948,8.577,5.446,8.577,5.446s-0.136,1.634-0.681,2.587
							c-0.545,0.953-1.362,0.953-1.906,0.953c-0.545,0-1.361,0-1.361,0s-1.976,4.689-4.426,5.37
							c-2.451,0.681-8.371,0.212-9.188-5.778c-0.817-5.99-0.953-10.892-0.272-12.117
							C392.558,211.366,396.915,208.098,396.915,208.098z"/>
					</g>
					
						<path style="fill:#FFFFFF;stroke:#263238;stroke-width:1.0474;stroke-linecap:round;stroke-linejoin:round;stroke-miterlimit:10;" d="
						M439.712,260.8c0,0,1.106-2.212,1.106-4.033c0-1.821-3.383-4.423-4.033-5.074c-0.651-0.65-1.236-0.585-1.366,0.325
						c-0.13,0.911,0.52,2.082,1.171,2.732c0.651,0.65,1.003,1.13,1.054,1.573c0.051,0.443-1.119,2.655-0.534,4.086
						C437.696,261.841,439.387,262.296,439.712,260.8z"/>
					
						<path style="fill:none;stroke:#263238;stroke-width:3.1423;stroke-linecap:round;stroke-linejoin:round;stroke-miterlimit:10;" d="
						M304.284,250.585c0,0,14.664,4.713,23.567,15.711c8.903,10.998,14.664,9.427,25.662,5.761
						c10.998-3.666,15.188-16.759,30.375-5.761c15.188,10.998,18.33,15.188,30.899,8.903c12.569-6.284,19.377-21.472,30.899-16.235
						c11.522,5.237,6.285,31.946,7.332,45.039s-0.524,45.563,2.095,49.753c2.619,4.19,29.328,1.047,29.328,1.047"/>
				</g>
				<g>
					
						<path style="fill:#0d6efd;stroke:#263238;stroke-width:1.0474;stroke-linecap:round;stroke-linejoin:round;stroke-miterlimit:10;" d="
						M331.853,233.109c0,0-2.937-4.78-7.254-3.531c-4.564,1.321-6.93,7.854-8.023,11.926c-1.099,4.09-1.783,8.462-3.748,12.253
						c0,0-8.661-0.149-13.486-1.541s-10.866-3.974-10.866-3.974s-1.709-2.387-2.917-2.856c-1.208-0.468-4.345-1.397-4.577-0.673
						c-0.233,0.724,3.641,3.089,3.641,3.089s-7.205,1.038-7.919,1.768c-0.714,0.729,5.084,3.073,5.084,3.073s2.172,0.699,7.451-0.56
						c0,0,19.373,12.304,23.236,13.706c3.864,1.402,6.033,1.861,8.626-3.218c2.592-5.079,11.359-17.679,12.749-22.745"/>
					
						<path style="fill:#FFFFFF;stroke:#263238;stroke-width:1.0474;stroke-linecap:round;stroke-linejoin:round;stroke-miterlimit:10;" d="
						M293.527,250.249c-2.826-1.058-5.052-2.009-5.052-2.009s-1.709-2.387-2.917-2.856c-1.208-0.468-4.345-1.397-4.577-0.673
						c-0.233,0.724,3.641,3.089,3.641,3.089s-7.205,1.038-7.919,1.767c-0.714,0.729,5.084,3.073,5.084,3.073s2.172,0.699,7.451-0.56
						c0,0,1.054,0.669,2.708,1.706L293.527,250.249z"/>
				</g>
			</g>
			<g>
				
					<path style="fill:#FFFFFF;stroke:#263238;stroke-width:1.0474;stroke-linecap:round;stroke-linejoin:round;stroke-miterlimit:10;" d="
					M368.188,262.637c0,0-1.106-2.212-1.106-4.033c0-1.821,3.383-4.423,4.033-5.074c0.65-0.651,1.236-0.585,1.366,0.325
					c0.13,0.911-0.52,2.082-1.171,2.732c-0.65,0.651-1.003,1.13-1.054,1.573c-0.052,0.443,1.119,2.655,0.534,4.086
					C370.205,263.678,368.514,264.133,368.188,262.637z"/>
				<g>
					
						<path style="fill:#FFFFFF;stroke:#263238;stroke-width:1.0474;stroke-linecap:round;stroke-linejoin:round;stroke-miterlimit:10;" d="
						M370.52,257.149c0,0-2.786,5.15-1.17,6.965c1.616,1.814,3.192-4.163,3.489-5.824
						C373.135,256.629,371.553,254.985,370.52,257.149z"/>
					
						<path style="fill:#FFFFFF;stroke:#263238;stroke-width:1.0474;stroke-linecap:round;stroke-linejoin:round;stroke-miterlimit:10;" d="
						M372.821,258.949c0,0-2.786,5.15-1.17,6.965c1.616,1.814,3.192-4.163,3.488-5.824
						C375.436,258.429,373.854,256.786,372.821,258.949z"/>
					
						<path style="fill:#FFFFFF;stroke:#263238;stroke-width:1.0474;stroke-linecap:round;stroke-linejoin:round;stroke-miterlimit:10;" d="
						M375.347,259.43c0,0-2.786,5.15-1.17,6.965c1.616,1.814,3.192-4.163,3.489-5.824C377.962,258.91,376.38,257.266,375.347,259.43
						z"/>
					
						<path style="fill:#FFFFFF;stroke:#263238;stroke-width:1.0474;stroke-linecap:round;stroke-linejoin:round;stroke-miterlimit:10;" d="
						M378.588,259.466c0,0-2.599,4.048-1.175,5.514c1.425,1.465,2.948-3.243,3.242-4.614
						C380.949,258.996,379.553,257.671,378.588,259.466z"/>
				</g>
			</g>
			<g>
				<g>
					
						<path style="fill:#FFFFFF;stroke:#263238;stroke-width:1.0474;stroke-linecap:round;stroke-linejoin:round;stroke-miterlimit:10;" d="
						M437.852,257.353c0,0,2.786,5.15,1.17,6.965c-1.616,1.814-3.192-4.163-3.488-5.824
						C435.236,256.832,436.818,255.189,437.852,257.353z"/>
					
						<path style="fill:#FFFFFF;stroke:#263238;stroke-width:1.0474;stroke-linecap:round;stroke-linejoin:round;stroke-miterlimit:10;" d="
						M435.551,259.153c0,0,2.786,5.15,1.17,6.965c-1.616,1.814-3.192-4.163-3.489-5.824
						C432.936,258.633,434.518,256.989,435.551,259.153z"/>
					
						<path style="fill:#FFFFFF;stroke:#263238;stroke-width:1.0474;stroke-linecap:round;stroke-linejoin:round;stroke-miterlimit:10;" d="
						M433.024,259.634c0,0,2.786,5.15,1.17,6.965c-1.616,1.815-3.192-4.163-3.489-5.824
						C430.409,259.113,431.991,257.47,433.024,259.634z"/>
					
						<path style="fill:#FFFFFF;stroke:#263238;stroke-width:1.0474;stroke-linecap:round;stroke-linejoin:round;stroke-miterlimit:10;" d="
						M429.783,259.669c0,0,2.599,4.048,1.175,5.514c-1.424,1.465-2.948-3.244-3.242-4.614
						C427.422,259.2,428.819,257.874,429.783,259.669z"/>
				</g>
			</g>
		</g>
		<g>
			<g>
				<g>
					
						<path style="fill:#FFFFFF;stroke:#263238;stroke-width:1.0474;stroke-linecap:round;stroke-linejoin:round;stroke-miterlimit:10;" d="
						M85.721,316.652v5.68c0,0-2.926,2.926-4.131,7.574c-1.205,4.648-4.992,24.615-3.959,25.132
						c1.033,0.516,10.39,2.674,13.407,2.222c3.443-0.516,6.369-0.344,4.648-2.238c-1.721-1.893-10.825-7.214-10.825-7.214
						s9.984-14.459,12.221-19.795c2.238-5.336,2.582-13.599,2.582-13.599l-13.426-0.516L85.721,316.652z"/>
					
						<path style="fill:#263238;stroke:#263238;stroke-width:1.0474;stroke-linecap:round;stroke-linejoin:round;stroke-miterlimit:10;" d="
						M91.037,357.26c3.443-0.516,6.369-0.344,4.648-2.238c-1.721-1.893-10.825-7.214-10.825-7.214l-0.344,2.066l-6.549-0.802
						c-0.478,3.336-0.689,5.789-0.336,5.966C78.663,355.554,88.021,357.712,91.037,357.26z"/>
				</g>
				<g>
					
						<path style="fill:#FFFFFF;stroke:#263238;stroke-width:1.0474;stroke-linecap:round;stroke-linejoin:round;stroke-miterlimit:10;" d="
						M118.598,319.592l1.549,2.754c0,0-2.066,3.271-0.516,8.09c1.549,4.82,5.164,22.549,5.164,23.582s2.238,1.721,3.959,1.721
						s6.668,0.339,7.357,0.339c0.689,0,5.68,0.861,7.402-0.172c1.721-1.033-2.193-3.093-4.775-4.298
						c-2.582-1.205-8.262-4.303-8.262-4.303s1.377-14.115,1.377-20.312s1.377-8.262-0.516-12.049
						c-1.893-3.787-13.771,1.721-13.771,1.721L118.598,319.592z"/>
					
						<path style="fill:#263238;stroke:#263238;stroke-width:1.0474;stroke-linecap:round;stroke-linejoin:round;stroke-miterlimit:10;" d="
						M138.738,351.609c-2.582-1.205-8.262-4.303-8.262-4.303l-0.688,2.582l-5.523,0.994c0.328,1.714,0.531,2.893,0.531,3.137
						c0,1.033,2.238,1.721,3.959,1.721s6.668,0.339,7.357,0.339c0.688,0,5.68,0.861,7.402-0.172
						C145.234,354.874,141.32,352.814,138.738,351.609z"/>
				</g>
				<g>
					<g>
						
							<path style="fill:#FFFFFF;stroke:#263238;stroke-width:1.0474;stroke-linecap:round;stroke-linejoin:round;stroke-miterlimit:10;" d="
							M109.325,205.017c0,0-2.227-3.861-4.603-6.533c-2.376-2.673-9.8-2.524-13.067,1.039c-3.267,3.564-2.227,9.8-1.039,11.582
							c1.188,1.782,3.712,10.097,3.712,10.097l0.594,5.939l13.809,4.9l-2.821-9.652c0,0,5.346-1.039,5.791-2.673
							c0.446-1.633-0.891-7.276-0.891-7.276s1.782-1.188,1.633-2.227C112.295,209.174,109.325,205.017,109.325,205.017z"/>
						
							<path style="fill:#263238;stroke:#263238;stroke-width:1.0474;stroke-linecap:round;stroke-linejoin:round;stroke-miterlimit:10;" d="
							M93.437,211.402c0,0,2.362,1.97,3.656-0.293c1.293-2.263,2.263-4.526,2.263-6.466c0-1.94-4.85-3.556-1.617-4.85
							c3.233-1.293,5.56,1.584,6.983-1.31c1.423-2.893,0.13-3.217-7.629-3.217s-11.639,3.88-10.023,8.729
							c1.617,4.85,4.85,10.346,4.85,10.346L93.437,211.402z"/>
						
							<path style="fill:none;stroke:#263238;stroke-width:1.0474;stroke-linecap:round;stroke-linejoin:round;stroke-miterlimit:10;" d="
							M109.771,208.432c0,2.05-1.662,3.712-3.712,3.712c-2.05,0-3.712-1.662-3.712-3.712c0-2.05,1.662-3.712,3.712-3.712
							C108.109,204.72,109.771,206.382,109.771,208.432z"/>
						
							<path style="fill:none;stroke:#263238;stroke-width:1.0474;stroke-linecap:round;stroke-linejoin:round;stroke-miterlimit:10;" d="
							M109.229,205.143c0.418-0.177,0.877-0.274,1.358-0.274c1.927,0,3.489,1.562,3.489,3.49c0,1.312-0.724,2.455-1.795,3.051"/>
						
							<line style="fill:#FFFFFF;stroke:#263238;stroke-width:1.0474;stroke-linecap:round;stroke-linejoin:round;stroke-miterlimit:10;" x1="102.346" y1="208.432" x2="93.437" y2="211.402"/>
						
							<path style="fill:#FFFFFF;stroke:#263238;stroke-width:1.0474;stroke-linecap:round;stroke-linejoin:round;stroke-miterlimit:10;" d="
							M95.961,213.332c0,0-1.782-3.712-3.564-2.97c-1.782,0.742-0.891,6.533,0.891,7.127c1.782,0.594,3.415-0.891,3.415-0.891
							s1.485,3.118,3.267,4.009"/>
					</g>
					
						<path style="fill:#0d6efd;stroke:#263238;stroke-width:1.0474;stroke-linecap:round;stroke-linejoin:round;stroke-miterlimit:10;" d="
						M84.322,279.951l-1.108,14.219L79.89,315.22c0,0,7.756,6.094,14.957,6.094s9.233-0.923,9.233-0.923l4.062-21.605l4.062,22.713
						c0,0,7.94-1.293,13.295-2.585c5.355-1.293,10.341-4.801,10.341-4.801l-10.71-27.883l-2.325-14.378
						c0,0-12.003,1.108-19.204,1.477c-7.202,0.369-16.804-1.477-16.804-1.477L84.322,279.951z"/>
					
						<path style="fill:#263238;stroke:#263238;stroke-width:1.0474;stroke-linecap:round;stroke-linejoin:round;stroke-miterlimit:10;" d="
						M91.932,223.178c0,0,17.008,5.935,22.245,11.695c2.903,3.193,6.151,25.092,7.322,30.443c1.171,5.351,3.213,16.035,3.213,16.035
						s-10.368,4.682-18.395,4.85c-8.027,0.167-23.412-3.512-23.412-3.512s1.835-23.724,1.835-34.762
						c0-11.037,0.167-18.228,2.007-21.739C86.748,226.189,89.758,222.844,91.932,223.178z"/>
					
						<path style="fill:none;stroke:#263238;stroke-width:1.0474;stroke-linecap:round;stroke-linejoin:round;stroke-miterlimit:10;" d="
						M87.461,284.383c0,0,0.923,15.511,0,21.235c-0.923,5.724-3.324,10.71-3.324,10.71"/>
					
						<path style="fill:none;stroke:#263238;stroke-width:1.0474;stroke-linecap:round;stroke-linejoin:round;stroke-miterlimit:10;" d="
						M87.83,291.769c0,0,4.247-1.108,5.54-6.278"/>
					
						<path style="fill:none;stroke:#263238;stroke-width:1.0474;stroke-linecap:round;stroke-linejoin:round;stroke-miterlimit:10;" d="
						M80.813,312.266c0,0,9.233,7.94,23.636,4.986"/>
					
						<path style="fill:none;stroke:#263238;stroke-width:1.0474;stroke-linecap:round;stroke-linejoin:round;stroke-miterlimit:10;" d="
						M111.836,316.883c0,0,15.142-1.662,21.789-6.094"/>
				</g>
			</g>
			
				<path style="fill:#263238;stroke:#263238;stroke-width:1.0474;stroke-linecap:round;stroke-linejoin:round;stroke-miterlimit:10;" d="
				M179.557,216.039c0,0-1.457,1.085-6.548,4.799c-5.091,3.714-1.077,9.343-1.077,9.343s-3.644,0.571-8.502,5.674
				c-4.857,5.104,2.166,13.883,8.743,15.257c6.577,1.374,14.244-6.766,16.55-14.298c2.306-7.532-0.743-18.913-2.272-21.262
				C184.922,213.204,179.557,216.039,179.557,216.039z"/>
			
				<path style="fill:#263238;stroke:#263238;stroke-width:1.0474;stroke-linecap:round;stroke-linejoin:round;stroke-miterlimit:10;" d="
				M198.837,214.983c0,0,2.536-3.915,0.238-9.58c-2.298-5.666-9.122-8.258-15.786-4.154c-6.665,4.104-5.98,10.672-5.329,13.294
				c0.651,2.622,3.934,6.651,4.616,6.705c0.681,0.054,6.68,2.239,10.773,0.332C197.441,219.672,198.837,214.983,198.837,214.983z"/>
			
				<path style="fill:#737373;stroke:#263238;stroke-width:1.0474;stroke-linecap:round;stroke-linejoin:round;stroke-miterlimit:10;" d="
				M169.411,346.947c0,0,4.744,7.395,12.976,8.651c8.232,1.256,0.837-6.139-0.558-7.255
				C180.434,347.225,170.527,344.854,169.411,346.947z"/>
			
				<path style="fill:#737373;stroke:#263238;stroke-width:1.0474;stroke-linecap:round;stroke-linejoin:round;stroke-miterlimit:10;" d="
				M213.362,348.9c0,0,9.069,2.232,8.372,4.186c-0.698,1.953-8.092,1.814-12.418,0.698c-4.325-1.116-8.372-2.79-7.813-4.604
				C202.06,347.365,213.362,348.9,213.362,348.9z"/>
			
				<path style="fill:#0d6efd;stroke:#263238;stroke-width:1.0474;stroke-linecap:round;stroke-linejoin:round;stroke-miterlimit:10;" d="
				M187.569,229.696c0,0-12.139,1.789-14.361,6.071c-2.222,4.282,0.912,27.668,0.912,27.668s-5.182,11.42-5.247,18.786
				c-0.064,7.366,3.204,20.306,2.95,23.543c-0.254,3.237-3.582,39.979-3.582,41.004s7.006,3.247,17.088,4.443
				c10.082,1.196,29.392-2.392,29.392-2.392s-0.386-21.695,0.631-34.642c1.017-12.947-0.437-24.568-2.971-29.395
				c-2.535-4.827-14.538-22.225-14.538-22.225s5.797-10.515,6.158-15.114c0.361-4.6-1.509-6.975-5.891-12.29
				C193.728,229.837,187.569,229.696,187.569,229.696z"/>
			
				<path style="fill:#737373;stroke:#263238;stroke-width:1.0474;stroke-linecap:round;stroke-linejoin:round;stroke-miterlimit:10;" d="
				M197.843,262.556c0,0,5.797-10.515,6.158-15.114s-1.509-6.975-5.891-12.29c-0.212-0.258-0.432-0.493-0.652-0.727l-0.16,0.149
				c-4.499,7.346-19.374,19.904-23.809,23.565c0.341,3.129,0.631,5.296,0.631,5.296s-5.182,11.42-5.247,18.786
				c-0.025,2.802,0.434,6.411,0.997,9.986c10.51-6.044,24.575-17.224,32.179-23.485
				C199.672,265.207,197.843,262.556,197.843,262.556z"/>
			
				<path style="fill:#FFFFFF;stroke:#263238;stroke-width:1.0474;stroke-linecap:round;stroke-linejoin:round;stroke-miterlimit:10;" d="
				M185.328,221.121c0,0,0.711,6.227,0.55,8.271c-0.161,2.044,0.5,6.724,3.984,8.198c3.484,1.474,5.702-0.58,5.692-2.638
				c-0.01-2.058-0.975-5.047-0.975-5.047l0.101-5.649C194.681,224.255,188.632,220.523,185.328,221.121z"/>
			
				<path style="fill:#FFFFFF;stroke:#263238;stroke-width:1.0474;stroke-linecap:round;stroke-linejoin:round;stroke-miterlimit:10;" d="
				M182.189,217.446c0,0-2.565-2.258-2.649,0.992c-0.084,3.25,2.916,4.343,3.584,4.567c0.668,0.224,1.573-0.391,1.573-0.391
				s4.659,3.965,8.407,4.26c3.748,0.294,5.258-1.473,6.134-8.26c0.876-6.788-6.125-13.68-6.125-13.68
				S187.106,215.947,182.189,217.446z"/>
			
				<path style="fill:#FFFFFF;stroke:#263238;stroke-width:1.0474;stroke-linecap:round;stroke-linejoin:round;stroke-miterlimit:10;" d="
				M124.961,281.178c0,0-0.068-2.033,0.558-3.395c0.625-1.361,4.047-2.146,4.756-2.409c0.71-0.263,1.125-0.013,0.91,0.712
				c-0.215,0.725-1.103,1.377-1.813,1.64c-0.709,0.263-1.137,0.501-1.328,0.814c-0.191,0.314-0.075,2.369-1.003,3.238
				C126.111,282.648,124.691,282.408,124.961,281.178z"/>
			
				<path style="fill:none;stroke:#263238;stroke-width:3.1423;stroke-linecap:round;stroke-linejoin:round;stroke-miterlimit:10;" d="
				M201.636,251.109c0,0-12.045-1.571-17.282,6.808c-5.237,8.379-15.188,37.707-33.518,42.421
				c-18.33,4.713-23.567-32.994-34.565-31.946c-10.479,0.998-17.806,0-24.091,11.522c-3.365,6.168-20.157,73.537-28.104,74.229
				c-25.287,2.203-41.564,0.77-41.564,0.77"/>
			<g>
				
					<path style="fill:#263238;stroke:#263238;stroke-width:1.0474;stroke-linecap:round;stroke-linejoin:round;stroke-miterlimit:10;" d="
					M92.707,223.656c0,0-2.77-1.108-6.463,1.108c-3.693,2.216-13.665,26.406-12.926,28.991c0.739,2.585,11.264,7.386,17.173,9.048
					c5.909,1.662,16.619,3.693,16.619,3.693s3.324,5.171,4.432,5.355c1.108,0.185,4.801-0.554,4.801-0.554s2.031,1.662,2.77-0.185
					c0.739-1.847-0.739-4.247-2.4-6.094c-1.662-1.847-8.679-2.77-8.679-2.77l-19.02-13.111l7.94-14.772"/>
				
					<path style="fill:#FFFFFF;stroke:#263238;stroke-width:1.0474;stroke-linecap:round;stroke-linejoin:round;stroke-miterlimit:10;" d="
					M111.542,271.852c1.108,0.185,4.801-0.554,4.801-0.554s2.031,1.662,2.77-0.185c0.739-1.847-0.739-4.247-2.4-6.094
					c-1.662-1.847-8.679-2.77-8.679-2.77l-19.02-13.111l2.84-5.284c-7.118-4.433-11.83-4.101-14.379-3.211
					c-2.554,6.116-4.498,11.917-4.157,13.111c0.739,2.585,11.264,7.386,17.173,9.048c5.909,1.662,16.619,3.693,16.619,3.693
					S110.434,271.667,111.542,271.852z"/>
			</g>
			<g>
				
					<path style="fill:#263238;stroke:#263238;stroke-width:1.0474;stroke-linecap:round;stroke-linejoin:round;stroke-miterlimit:10;" d="
					M230.494,251.52c-0.81-8.729-4.99-15.897-9.993-18.748l-0.165-1.784l-13.053,1.211c-7.349,0.682-12.422,10.767-11.331,22.525
					c1.091,11.758,7.933,20.738,15.282,20.056l13.053-1.211l-0.165-1.784C228.514,268.064,231.304,260.249,230.494,251.52z"/>
				
					<path style="fill:#FFFFFF;stroke:#263238;stroke-width:1.0474;stroke-linecap:round;stroke-linejoin:round;stroke-miterlimit:10;" d="
					M236.397,250.973c-0.851-9.171-5.034-16.723-10.29-19.718l-0.174-1.874l-5.592,0.519c-7.722,0.717-13.052,11.313-11.906,23.667
					c1.146,12.355,8.335,21.789,16.057,21.073l5.592-0.519l-0.174-1.874C234.526,268.336,237.248,260.143,236.397,250.973z"/>
				
					<path style="fill:#FFFFFF;stroke:#263238;stroke-width:1.0474;stroke-linecap:round;stroke-linejoin:round;stroke-miterlimit:10;" d="
					M241.99,250.454c1.146,12.355-4.184,22.951-11.906,23.667c-7.722,0.716-14.911-8.718-16.057-21.073
					c-1.146-12.355,4.184-22.951,11.906-23.667C233.655,228.664,240.844,238.099,241.99,250.454z"/>
				
					<path style="fill:#737373;stroke:#263238;stroke-width:1.0474;stroke-linecap:round;stroke-linejoin:round;stroke-miterlimit:10;" d="
					M248.018,243.229l-21.693,2.013c-1.279,0.119-2.411-0.822-2.529-2.1l0,0c-0.119-1.278,0.822-2.411,2.1-2.53l21.693-2.013
					c1.278-0.119,2.411,0.822,2.53,2.1l0,0C250.236,241.978,249.296,243.11,248.018,243.229z"/>
				
					<path style="fill:#737373;stroke:#263238;stroke-width:1.0474;stroke-linecap:round;stroke-linejoin:round;stroke-miterlimit:10;" d="
					M249.613,260.424l-21.693,2.013c-1.278,0.119-2.411-0.822-2.529-2.1l0,0c-0.119-1.278,0.822-2.411,2.1-2.53l21.693-2.013
					c1.278-0.119,2.411,0.822,2.529,2.1l0,0C251.832,259.173,250.892,260.306,249.613,260.424z"/>
			</g>
			<g>
				
					<path style="fill:#0d6efd;stroke:#263238;stroke-width:1.0474;stroke-linecap:round;stroke-linejoin:round;stroke-miterlimit:10;" d="
					M180.069,231.335c0,0-5.218,0.961-7.687,4.024c-2.469,3.063-7.539,26.147-6.377,28.81c1.162,2.662,19.925,6.022,25.717,6.477
					c5.792,0.455,13.933-0.62,13.933-0.62s4.98-0.123,6.37-0.357c1.39-0.234,3.895-1.58,3.935-2.091
					c0.04-0.511-0.207-1.73-2.081-1.878c-1.874-0.147-5.882-1.491-6.393-1.531c-0.511-0.04,3.658-0.741,3.658-0.741
					s0.251-1.009-1.807-0.999c-2.058,0.01-3.932-0.137-4.707,1.002c-0.775,1.139-1.42,2.802-1.42,2.802s-11.548,0.807-17.821-2.257
					c-6.273-3.064-8.25-4.076-8.25-4.076l4.498-17.987"/>
				
					<path style="fill:#FFFFFF;stroke:#263238;stroke-width:1.0474;stroke-linecap:round;stroke-linejoin:round;stroke-miterlimit:10;" d="
					M212.026,269.669c1.39-0.234,3.895-1.58,3.935-2.091c0.04-0.511-0.207-1.73-2.081-1.878c-1.874-0.147-5.882-1.491-6.393-1.531
					c-0.511-0.04,3.658-0.741,3.658-0.741s0.251-1.009-1.807-0.999c-2.058,0.01-3.932-0.137-4.707,1.002
					c-0.775,1.139-1.42,2.802-1.42,2.802s-11.548,0.807-17.821-2.257c-6.273-3.064-8.25-4.076-8.25-4.076l2.743-10.968
					c-4.148-1.776-8.386-2.492-11.17-2.776c-1.871,7.544-3.401,16.421-2.707,18.012c1.162,2.662,19.925,6.022,25.717,6.477
					c5.792,0.455,13.933-0.62,13.933-0.62S210.636,269.903,212.026,269.669z"/>
			</g>
			<g>
				<g>
					
						<path style="fill:#FFFFFF;stroke:#263238;stroke-width:1.0474;stroke-linecap:round;stroke-linejoin:round;stroke-miterlimit:10;" d="
						M127.535,279.24c0,0-3.85,2.894-3.265,4.805c0.585,1.911,3.815-2.017,4.607-3.157
						C129.669,279.748,129.05,277.977,127.535,279.24z"/>
					
						<path style="fill:#FFFFFF;stroke:#263238;stroke-width:1.0474;stroke-linecap:round;stroke-linejoin:round;stroke-miterlimit:10;" d="
						M128.297,281.829c0,0-3.851,2.894-3.265,4.805c0.585,1.911,3.815-2.017,4.607-3.156
						C130.431,282.337,129.812,280.566,128.297,281.829z"/>
					
						<path style="fill:#FFFFFF;stroke:#263238;stroke-width:1.0474;stroke-linecap:round;stroke-linejoin:round;stroke-miterlimit:10;" d="
						M130.134,283.509c0,0-3.85,2.894-3.265,4.805c0.585,1.911,3.815-2.017,4.607-3.157
						C132.268,284.017,131.649,282.246,130.134,283.509z"/>
					
						<path style="fill:#FFFFFF;stroke:#263238;stroke-width:1.0474;stroke-linecap:round;stroke-linejoin:round;stroke-miterlimit:10;" d="
						M131.638,284.875c0,0-3.332,2.134-2.771,3.719c0.562,1.584,3.317-1.413,4.007-2.336
						C133.564,285.333,132.975,283.863,131.638,284.875z"/>
				</g>
			</g>
		</g>
	</g>
	<g>
		
			<path style="fill:#263238;stroke:#263238;stroke-width:1.0474;stroke-linecap:round;stroke-linejoin:round;stroke-miterlimit:10;" d="
			M176.18,138.713v-14.698c0-8.831,6.114-14.759,15.254-14.759c9.202,0,15.315,5.929,15.315,14.759v14.698
			c0,8.893-6.114,14.821-15.315,14.821C182.294,153.535,176.18,147.606,176.18,138.713z M200.82,138.96v-15.007
			c0-5.743-3.767-9.573-9.387-9.573c-5.558,0-9.325,3.829-9.325,9.573v15.007c0,5.681,3.767,9.448,9.325,9.448
			C197.054,148.408,200.82,144.642,200.82,138.96z"/>
		
			<path style="fill:#263238;stroke:#263238;stroke-width:1.0474;stroke-linecap:round;stroke-linejoin:round;stroke-miterlimit:10;" d="
			M215.211,144.704c-0.68-2.038-1.112-4.817-1.112-7.534c0-2.717,0.371-5.435,1.05-7.411c1.791-5.435,6.546-8.708,12.845-8.708
			c5.99,0,10.622,3.273,12.475,8.646c0.741,2.1,1.111,4.817,1.111,7.411c0,2.656-0.371,5.434-1.111,7.596
			c-1.853,5.496-6.546,8.769-12.537,8.769C221.757,153.473,217.001,150.199,215.211,144.704z M234.911,143.036
			c0.432-1.482,0.679-3.705,0.679-5.805c0-2.285-0.247-4.385-0.617-5.743c-1.05-3.335-3.644-5.311-7.164-5.311
			c-3.397,0-5.99,1.976-7.04,5.311c-0.432,1.359-0.679,3.458-0.679,5.743c0,2.223,0.247,4.385,0.679,5.805
			c0.988,3.335,3.644,5.311,7.164,5.311C231.267,148.347,233.861,146.371,234.911,143.036z"/>
		
			<path style="fill:#263238;stroke:#263238;stroke-width:1.0474;stroke-linecap:round;stroke-linejoin:round;stroke-miterlimit:10;" d="
			M275.917,137.354c0,2.779-0.247,5.311-0.927,7.473c-1.667,5.311-5.62,8.646-11.857,8.646c-2.84,0-5.372-1.112-7.163-3.149
			c-0.185-0.185-0.37-0.124-0.37,0.123v13.401c0,0.556-0.371,0.926-0.927,0.926h-4.076c-0.555,0-0.926-0.37-0.926-0.926v-41.376
			c0-0.556,0.37-0.927,0.926-0.927h4.076c0.555,0,0.927,0.371,0.927,0.927v1.605c0,0.247,0.185,0.371,0.37,0.185
			c1.791-2.1,4.323-3.211,7.163-3.211c6.052,0,9.943,3.211,11.672,8.399C275.608,131.673,275.917,134.329,275.917,137.354z
			 M269.988,137.231c0-3.335-0.555-5.805-1.544-7.658c-1.174-2.223-3.212-3.397-5.929-3.397c-2.409,0-4.2,1.236-5.373,3.335
			c-0.988,1.791-1.482,4.385-1.482,7.781c0,3.52,0.555,6.052,1.606,7.905c1.173,2.038,2.902,3.149,5.249,3.149
			c2.408,0,4.26-1.05,5.496-2.964C269.246,143.468,269.988,140.874,269.988,137.231z"/>
		
			<path style="fill:#263238;stroke:#263238;stroke-width:1.0474;stroke-linecap:round;stroke-linejoin:round;stroke-miterlimit:10;" d="
			M282.092,144.889v-0.371c0-0.556,0.371-0.926,0.927-0.926h3.829c0.556,0,0.927,0.185,0.927,0.432v0.494
			c0,2.223,2.717,4.323,6.608,4.323c3.829,0,6.299-1.853,6.299-4.261c0-2.655-3.088-3.52-6.793-4.57
			c-5.434-1.482-11.548-3.396-11.548-9.757c0-5.62,4.817-9.017,11.857-9.017c7.287,0,12.042,3.767,12.042,8.893
			c0,0.494-0.37,0.803-0.927,0.803h-3.705c-0.555,0-0.927-0.185-0.927-0.432v-0.371c0-2.285-2.408-4.199-6.545-4.199
			c-3.582,0-6.115,1.42-6.115,3.89c0,2.655,2.964,3.582,6.917,4.693c5.312,1.42,11.672,3.211,11.672,9.696
			c0,5.62-4.817,9.139-12.166,9.139C286.971,153.349,282.092,149.582,282.092,144.889z"/>
		
			<path style="fill:#263238;stroke:#263238;stroke-width:1.0474;stroke-linecap:round;stroke-linejoin:round;stroke-miterlimit:10;" d="
			M314.824,148.532c0-2.346,2.161-4.261,4.446-4.261c2.346,0,4.508,1.915,4.508,4.261c0,2.346-1.976,4.261-4.508,4.261
			C316.676,152.794,314.824,150.879,314.824,148.532z M316.985,137.725l-0.555-27.049c0-0.555,0.37-0.926,0.927-0.926h4.075
			c0.556,0,0.927,0.371,0.927,0.926l-0.494,27.049c0,0.556-0.37,0.926-0.927,0.926h-3.026
			C317.356,138.651,316.985,138.281,316.985,137.725z"/>
	</g>
</g>
</svg>
